HIERARCHY
ROOT Hips
{
  OFFSET -853.064 90.6492 450.351
  CHANNELS 6 Xposition Yposition Zposition Zrotation Xrotation Yrotation
  JOINT RightUpLeg
  {
    OFFSET -8.9458 -8.66707 0.101652
    CHANNELS 3 Zrotation Xrotation Yrotation
    JOINT RightLeg
    {
      OFFSET 0 -44.4227 1.3727
      CHANNELS 3 Zrotation Xrotation Yrotation
      JOINT RightFoot
      {
        OFFSET 0.253549 -42.0924 -1.46059
        CHANNELS 3 Zrotation Xrotation Yrotation
        JOINT RightToes
        {
          OFFSET 0.04 -4.41509 8.4991
          CHANNELS 3 Zrotation Xrotation Yrotation
          End Site
          {
            OFFSET -0.08 -0.137448 9.77979
          }
        }
      }
    }
  }
  JOINT Spine
  {
    OFFSET 0 11.8905 0
    CHANNELS 3 Zrotation Xrotation Yrotation
    JOINT Spine1
    {
      OFFSET 0 25.6574 0.127663
      CHANNELS 3 Zrotation Xrotation Yrotation
      JOINT HEad
      {
        OFFSET 0 8.73416 0.011341
        CHANNELS 3 Zrotation Xrotation Yrotation
        End Site
        {
          OFFSET -0.29 12.7742 2.51395
        }
      }
      JOINT LeftShoulder1
      {
        OFFSET 8.99 -0.362252 -0.22
        CHANNELS 3 Zrotation Xrotation Yrotation
        JOINT LeftArm
        {
          OFFSET 10.2827 -0.00338 0.322123
          CHANNELS 3 Zrotation Xrotation Yrotation
          JOINT LeftForeArm
          {
            OFFSET 32.7669 0.099144 -1.42434
            CHANNELS 3 Zrotation Xrotation Yrotation
            JOINT LeftHand
            {
              OFFSET 27.5643 0.085362 1.02216
              CHANNELS 3 Zrotation Xrotation Yrotation
              End Site
              {
                OFFSET 16.7443 -0.6 1.50291
              }
            }
          }
        }
      }
      JOINT RightShoulder
      {
        OFFSET -8.99 -0.362252 -0.22
        CHANNELS 3 Zrotation Xrotation Yrotation
        JOINT RightArm
        {
          OFFSET -10.2827 -0.00338 0.322123
          CHANNELS 3 Zrotation Xrotation Yrotation
          JOINT RightForeArm
          {
            OFFSET -32.8971 0.099144 -1.42434
            CHANNELS 3 Zrotation Xrotation Yrotation
            JOINT RightHand
            {
              OFFSET -27.4921 0.085362 1.02216
              CHANNELS 3 Zrotation Xrotation Yrotation
              End Site
              {
                OFFSET -16.6312 -0.6 1.50291
              }
            }
          }
        }
      }
    }
  }
  JOINT LeftUpLeg
  {
    OFFSET 8.9458 -8.66707 0.101652
    CHANNELS 3 Zrotation Xrotation Yrotation
    JOINT LeftLeg
    {
      OFFSET 0 -44.4227 1.3727
      CHANNELS 3 Zrotation Xrotation Yrotation
      JOINT LeftFoot
      {
        OFFSET -0.253549 -42.0924 -1.46059
        CHANNELS 3 Zrotation Xrotation Yrotation
        JOINT LeftToes
        {
          OFFSET -0.04 -4.41509 8.4991
          CHANNELS 3 Zrotation Xrotation Yrotation
          End Site
          {
            OFFSET 0.08 -0.047448 9.77979
          }
        }
      }
    }
  }
}
MOTION
Frames:	12
Frame Time:	0.0166667
-856.849 96.4089 449.061 -21.5365 15.8246 -106.803 -38.4685 7.79738 45.9587 91.8722 9.84849 -71.4458 -25.2684 4.3727 -2.64271 0.0462048 0.000533403 0.662642 2.28607 21.146 -3.40129 0.0473216 0.06478 0.0610088 11.6558 8.80217 -26.1282 1.59028e-015 0 3.18055e-015 -90.4597 -18.1728 -77.9811 -55.8171 34.2386 -54.1366 6.47599 15.0466 -7.52065 11.9864 11.1545 -1.5069 107.838 -29.4679 88.8919 33.8518 43.695 69.4637 13.7615 16.9558 3.41312 8.17375 4.6629 -10.6217 -24.4207 8.30427 51.2986 68.2851 1.58748 1.16594 3.92344e-009 1.5602e-007 -4.87131e-009 
-856.188 96.3725 448.786 -19.8694 14.9384 -106.34 -37.9172 6.55597 47.0259 91.9217 8.07441 -66.8403 -24.3316 4.31831 -2.9481 0.0462048 0.000533403 0.662642 2.69068 21.4134 -1.59052 0.00075945 -0.01592 -0.02183 10.8026 5.65673 -26.7556 2.38542e-015 0 -0 -95.9673 -20.4088 -82.8462 -59.4432 40.845 -49.9859 10.8491 15.8423 -10.5409 21.7212 8.54908 4.28916 100.806 -37.0297 92.995 32.7295 43.6693 69.8362 14.0282 16.6386 2.48912 8.62184 2.57046 -9.01424 -24.8881 8.41415 49.9938 65.6915 1.2594 1.39061 3.92345e-009 1.5602e-007 -4.87132e-009 
-857.477 95.9328 447.566 -18.5606 14.1973 -105.754 -36.2563 5.51239 47.1995 89.5047 6.75326 -66.7194 -23.1687 0.749576 0.470223 0.0462048 0.000533403 0.662642 3.07194 21.6044 -0.0881318 -0.0012406 -0.01984 -0.02378 9.92725 3.13618 -27.4077 7.95139e-016 0 3.18055e-015 -100.131 -20.7675 -86.197 -62.8652 44.8915 -46.7166 10.7575 8.55212 -9.0887 22.2551 6.16385 2.27498 101.248 -36.0244 93.6413 31.9726 43.6297 70.2021 13.8874 16.4053 0.928147 10.955 0.921868 -8.0503 -29.5446 10.4234 51.461 62.6593 -2.27723 3.4836 3.92344e-009 1.5602e-007 -4.87132e-009 
-858.823 95.4272 446.417 -17.6023 13.6418 -105.065 -33.5006 4.64358 46.0634 85.1347 7.16192 -66.1681 -20.5884 -2.8123 3.82083 0.0462048 0.000533403 0.662642 3.39233 21.341 1.30489 -0.00113295 -0.0143 -0.0243991 9.21479 1.68142 -28.2341 0 0 -3.18055e-015 -102.79 -20.1726 -87.6324 -65.6814 47.1147 -44.4441 13.6579 10.219 -10.8465 23.0135 4.53259 0.0588189 101.425 -35.5898 93.5806 31.3993 43.6876 70.5735 14.6 16.6866 0.656154 13.0175 -0.100039 -7.32117 -33.5341 12.0873 52.8127 59.5383 -5.54645 4.96784 3.92343e-009 1.5602e-007 -4.87131e-009 
-860.197 94.9417 445.341 -16.9756 13.3121 -104.29 -30.0648 3.72877 43.7566 80.0594 9.82115 -60.1228 -17.109 -4.42201 2.74307 0.0462048 0.000533403 0.662642 3.60968 20.7368 2.5416 -0.000273353 -0.00831 -0.0248621 8.79535 1.18505 -29.1176 -7.95139e-016 0 -3.18055e-015 -104.198 -19.1974 -87.485 -67.724 48.1546 -43.1207 13.6418 7.05132 -10.4669 23.9433 3.55153 -2.30526 101.409 -35.5537 93.0288 30.9689 43.8102 70.9406 14.8803 17.0254 0.0566952 14.978 -0.686375 -6.87755 -37.1436 13.6062 54.2109 56.2952 -8.70033 5.98747 3.92344e-009 1.5602e-007 -4.87131e-009 
-861.616 94.4445 444.232 -16.702 13.2748 -103.369 -26.4855 1.74586 40.3726 79.2633 14.8837 -58.7528 -14.0336 -5.35505 3.26741 0.0462048 0.000533403 0.662642 3.78569 19.9273 3.5173 0.00114007 -0.00271001 -0.0251688 8.73996 1.52074 -29.9866 2.20695e-032 7.95139e-016 -1.59028e-015 -104.648 -18.0446 -85.9222 -69.8995 43.7065 -43.4342 12.4415 13.2552 -11.1382 25.1325 3.09471 -4.69648 101.131 -35.9013 92.1285 30.6529 43.99 71.3467 15.5438 17.5427 0.202114 17.1916 -0.936148 -6.78961 -40.8644 15.1736 55.8879 52.87 -11.9946 6.61838 3.92343e-009 1.5602e-007 -4.87131e-009 
-863.149 94.0503 443.072 -18.2175 14.606 -100.81 -22.4527 0.425903 35.8192 81.7022 21.6535 -60.1265 -9.53961 -5.72242 3.76501 0.0462048 0.000533403 0.662642 5.17673 20.4949 2.86384 0.00290962 0.00263999 -0.0253192 9.06434 2.55225 -30.8123 7.95139e-016 1.98785e-016 1.59028e-015 -104.403 -16.8535 -83.334 -71.0703 41.5589 -43.8874 10.8423 14.5006 -11.0814 26.6025 3.04993 -6.99211 100.595 -36.6483 91.0122 30.428 44.2071 71.8122 15.8697 17.9974 0.157264 20.3836 0.342267 -8.72668 -44.4685 16.7621 57.7232 49.0298 -15.3318 6.74957 3.92343e-009 1.5602e-007 -4.87132e-009 
-864.82 93.8289 441.869 -21.5013 16.8591 -96.8693 -18.4764 -0.591305 30.0386 85.3071 28.8159 -62.1623 -5.8706 -5.83841 3.5402 0.0462048 0.000533403 0.662642 7.54149 22.2616 0.868729 0.00483764 0.00793999 -0.0253131 9.74492 4.14588 -31.6001 7.95139e-016 -1.98785e-016 1.59028e-015 -103.677 -15.7384 -80.142 -71.5419 40.7316 -44.5547 11.5598 17.1548 -12.0123 28.3485 3.33944 -9.11195 99.8437 -37.7784 89.8077 30.285 44.4622 72.3342 16.4053 18.4184 0.53326 24.3995 2.84438 -12.5262 -47.6774 18.3169 59.5455 44.6003 -18.5095 6.28678 3.92344e-009 1.5602e-007 -4.87132e-009 
-866.599 93.7919 440.636 -26.5624 19.5995 -91.7069 -15.028 -1.52524 23.006 89.4216 35.1604 -65.8506 -5.8108 -6.44073 2.90067 0.0462048 0.000533403 0.662642 10.838 25.044 -2.26685 0.00672648 0.01345 -0.0251504 10.7316 6.17234 -32.3754 3.18055e-015 3.97569e-016 1.59028e-015 -102.639 -14.757 -76.6448 -71.5426 40.6525 -45.3754 11.3297 17.4195 -12.3846 30.3599 3.91285 -11.0115 98.9441 -39.2382 88.6468 30.2175 44.7448 72.8572 16.6846 18.6972 0.78883 29.2992 6.28508 -18.0792 -50.2572 19.7279 61.1371 39.5015 -21.2966 5.21996 3.92344e-009 1.5602e-007 -4.87131e-009 
-868.438 93.7841 439.387 -31.4046 21.7374 -86.8694 -13.5994 -4.3207 15.4593 94.6583 40.8622 -71.1928 -4.67431 -6.75649 2.43187 0.0462048 0.000533403 0.662642 13.7898 27.0637 -5.17618 0.00900525 0.01915 -0.0248311 11.9672 8.52704 -33.1749 1.59028e-015 -3.97569e-016 7.95139e-016 -101.395 -13.9714 -73.0355 -71.2496 40.9675 -46.2818 12.2216 18.6881 -13.0207 32.643 4.74564 -12.7183 97.96 -40.9247 87.6233 30.2113 45.067 73.3333 17.0336 18.8595 1.27104 34.2985 9.1247 -23.673 -52.3912 20.9618 62.545 33.8453 -23.7055 3.63052 3.92343e-009 1.5602e-007 -4.87132e-009 
-870.311 93.715 438.166 -36.0049 23.3895 -82.4242 -14.3774 -8.6563 7.40526 101.404 45.7685 -78.3943 -4.77351 -6.89888 1.80886 0.0462048 0.000533403 0.662642 16.3957 28.5255 -7.75863 0.0102129 0.0249 -0.024355 13.3931 11.1245 -34.0356 -2.75869e-032 -1.98785e-015 -7.95139e-016 -100.009 -13.4324 -69.4153 -70.8274 41.5036 -47.1641 12.2861 18.7658 -13.2663 35.1579 5.80331 -14.3002 96.9699 -42.7178 86.7747 30.2326 45.4383 73.7282 17.1653 18.9457 1.66763 39.2727 11.4995 -29.2544 -54.0432 21.9277 63.7106 27.7715 -25.6265 1.6447 3.92344e-009 1.5602e-007 -4.87132e-009 
-872.249 93.4482 436.965 -40.3383 24.6252 -78.4283 -17.8641 -14.0094 -1.13162 109.515 49.5132 -87.0625 -4.74403 -6.54407 1.14075 0.0462048 0.000533403 0.662642 18.6178 29.5786 -9.94977 0.0108765 0.0268406 -0.0237221 14.9694 13.8978 -34.9807 -4.13804e-032 1.49089e-015 1.59028e-015 -98.5424 -13.1571 -65.8647 -70.3939 42.1496 -47.9496 12.995 19.3769 -13.7936 37.6865 6.96226 -15.818 96.0637 -44.5011 86.0058 30.236 45.8397 74.0378 17.2804 19.2017 2.29923 44.0809 13.5036 -34.7316 -55.2701 22.657 64.6702 21.4148 -27.0329 -0.607008 3.92344e-009 1.5602e-007 -4.87131e-009 
